<?xml version="1.0" encoding="UTF-8" standalone="no"?>
<svg xmlns:dc="http://purl.org/dc/elements/1.1/" xmlns:cc="http://creativecommons.org/ns#" xmlns:rdf="http://www.w3.org/1999/02/22-rdf-syntax-ns#" xmlns:svg="http://www.w3.org/2000/svg" xmlns="http://www.w3.org/2000/svg" xmlns:xlink="http://www.w3.org/1999/xlink" version="1.1" id="svg2" viewBox="0 0 748.09287 444.73846" height="125.51508mm" width="211.12843mm">
  <defs id="defs4">
    <linearGradient id="linearGradient6546">
      <stop id="stop6548" offset="0" style="stop-color:#b3b3b3;stop-opacity:1;"/>
      <stop id="stop6550" offset="1" style="stop-color:#b3b3b3;stop-opacity:0;"/>
    </linearGradient>
    <linearGradient id="linearGradient4434">
      <stop id="stop4436" offset="0" style="stop-color:#999;stop-opacity:1"/>
      <stop id="stop4438" offset="1" style="stop-color:#4d4d4d;stop-opacity:1"/>
    </linearGradient>
    <linearGradient gradientUnits="userSpaceOnUse" y2="-647.61511" x2="2041.772" y1="635.93359" x1="2016.7129" id="linearGradient4442" xlink:href="#linearGradient4434"/>
    <linearGradient gradientTransform="matrix(0.36980838,0,0,0.32764784,486.08153,70.294668)" y2="-647.61511" x2="2041.772" y1="635.93359" x1="2016.7129" gradientUnits="userSpaceOnUse" id="linearGradient4527" xlink:href="#linearGradient4434"/>
    <linearGradient gradientUnits="userSpaceOnUse" y2="-782.38965" x2="2414.3157" y1="371.81641" x1="643.63629" id="linearGradient4697" xlink:href="#linearGradient6546"/>
    <linearGradient gradientUnits="userSpaceOnUse" y2="70.635719" x2="1340.2836" y1="70.635719" x1="637.80847" id="linearGradient5102" xlink:href="#linearGradient6546"/>
  </defs>
  <metadata id="metadata7">
    <rdf:RDF>
      <cc:Work rdf:about="">
        <dc:format>image/svg+xml</dc:format>
        <dc:type rdf:resource="http://purl.org/dc/dcmitype/StillImage"/>
        <dc:title/>
      </cc:Work>
    </rdf:RDF>
  </metadata>
  <g transform="translate(37.047415,-104.18577)" id="layer1">
    <g transform="matrix(0.61140676,0,0,0.61140676,134.69081,107.67328)" id="g5464">
      <g id="g4661" transform="matrix(1.1433046,0,0,1.1433046,-720.97712,173.91117)">
        <g transform="translate(-38.649237,6)" id="g4637">
          <path style="opacity:1;fill:#666666;fill-opacity:1;stroke:none;stroke-width:35;stroke-linecap:butt;stroke-linejoin:miter;stroke-miterlimit:4;stroke-dasharray:none;stroke-dashoffset:0;stroke-opacity:1" d="m 970.17397,277.47732 115.04263,0 c 0.8145,0 1.4702,0.79161 1.4702,1.77491 l 0,124.2824 c 0,0.9833 -0.6557,1.77491 -1.4702,1.77491 l -115.04263,0 c -0.81447,0 -1.47015,-0.79161 -1.47015,-1.77491 l 0,-124.2824 c 0,-0.9833 0.65568,-1.77491 1.47015,-1.77491 z" id="rect4544"/>
          <g id="g4576" transform="matrix(0.16191174,0,0,0.11475118,1552.5086,251.15163)">
            <path id="path4574" d="m -3257.9316,1495.793 140.3086,0 1052.3007,0 c 21.4006,0 24.1859,-47.2407 29.1778,-77.7871 10.4227,-63.7774 12.5833,-87.5123 4.0039,-112.209 -4.9096,-14.1325 -15.2537,-25.0137 -21.6446,-25.0137 l -1063.8378,0 -138.8458,0 -1.4628,215.0098 z" style="opacity:1;fill:#4d4d4d;fill-opacity:1;stroke:none;stroke-width:35;stroke-linecap:butt;stroke-linejoin:miter;stroke-miterlimit:4;stroke-dasharray:none;stroke-dashoffset:0;stroke-opacity:1"/>
            <path id="path4572" d="m -3256.5703,1280.7832 -108.5137,0 -1063.8379,0 c -6.3909,0 -16.737,10.8812 -21.6465,25.0137 -8.5795,24.6967 -6.4187,48.4316 4.0039,112.209 4.992,30.5464 7.7772,77.7871 29.1778,77.7871 l 1052.3027,0 107.0508,0 1.4629,-215.0098 z" style="opacity:1;fill:#666666;fill-opacity:1;stroke:none;stroke-width:35;stroke-linecap:butt;stroke-linejoin:miter;stroke-miterlimit:4;stroke-dasharray:none;stroke-dashoffset:0;stroke-opacity:1"/>
            <path id="path4569" d="m -3245.0098,1495.793 127.3868,0 1052.3007,0 c 16.7517,0 22.0798,-28.9063 26.0059,-56.1328 4.8943,-33.8048 10.6026,-72.3066 12.4355,-96.25 -7.6155,37.3761 -19.0211,91.3762 -38.3339,96.25 l -1052.4082,0 -127.004,0 -0.3828,56.1328 z" style="opacity:1;fill:#333333;fill-opacity:1;stroke:none;stroke-width:35;stroke-linecap:butt;stroke-linejoin:miter;stroke-miterlimit:4;stroke-dasharray:none;stroke-dashoffset:0;stroke-opacity:1"/>
            <path id="path4567" d="m -3244.7266,1439.6602 -120.3574,0 -1052.4082,0 c -19.3127,-4.8738 -30.7184,-58.8739 -38.334,-96.25 1.833,23.9434 7.5413,62.4452 12.4356,96.25 3.9261,27.2265 9.2522,56.1328 26.0039,56.1328 l 1052.3027,0 119.9746,0 0.3828,-56.1328 z" style="opacity:1;fill:#1a1a1a;fill-opacity:1;stroke:none;stroke-width:35;stroke-linecap:butt;stroke-linejoin:miter;stroke-miterlimit:4;stroke-dasharray:none;stroke-dashoffset:0;stroke-opacity:1"/>
          </g>
          <path style="opacity:1;fill:#666666;fill-opacity:1;stroke:none;stroke-width:35;stroke-linecap:butt;stroke-linejoin:miter;stroke-miterlimit:4;stroke-dasharray:none;stroke-dashoffset:0;stroke-opacity:1" d="m 972.11657,283.16637 c -0.78694,0 -1.42021,0.86478 -1.42021,1.93883 l 0,80.89895 113.99784,0.77541 0,-81.67436 c 0,-1.07405 -0.6332,-1.93883 -1.4202,-1.93883 l -111.15743,0 z" id="path4547"/>
          <path style="opacity:1;fill:#cccccc;fill-opacity:1;stroke:none;stroke-width:35;stroke-linecap:butt;stroke-linejoin:miter;stroke-miterlimit:4;stroke-dasharray:none;stroke-dashoffset:0;stroke-opacity:1" d="m 1084.6942,326.30898 -113.99784,-1.33601 0,94.48265 c 0,1.85052 0.63328,3.34003 1.42021,3.34003 l 111.15743,0 c 0.787,0 1.4202,-1.48951 1.4202,-3.34003 l 0,-93.14664 z" id="path4558"/>
          <path id="path4560" d="m 1084.6942,422.59384 -113.99784,0.33885 0,-23.9626 c 0,-0.46935 0.63328,-0.84707 1.42021,-0.84707 l 111.15743,0 c 0.787,0 1.4202,0.37772 1.4202,0.84707 l 0,23.62375 z" style="opacity:1;fill:#999999;fill-opacity:1;stroke:none;stroke-width:35;stroke-linecap:butt;stroke-linejoin:miter;stroke-miterlimit:4;stroke-dasharray:none;stroke-dashoffset:0;stroke-opacity:1"/>
        </g>
        <g id="g4648">
          <path id="path4499" d="m 622.67608,-141.89503 732.73992,0 c 6.1462,0 11.0942,4.50509 11.0942,10.10109 l 0,404.85932 c 0,5.59601 -4.948,10.10109 -11.0942,10.10109 l -732.73992,0 c -6.14622,0 -11.09425,-4.50508 -11.09425,-10.10109 l 0,-404.85932 c 0,-5.596 4.94803,-10.10109 11.09425,-10.10109 z" style="opacity:1;fill:#000000;fill-opacity:1;stroke:none;stroke-width:35;stroke-linecap:butt;stroke-linejoin:miter;stroke-miterlimit:4;stroke-dasharray:none;stroke-dashoffset:0;stroke-opacity:1"/>
          <path id="path4501" d="m 644.62443,-115.48383 688.84327,0 c 3.776,0 6.8159,2.86373 6.8159,6.42091 l 0,359.39728 c 0,3.55718 -3.0399,6.42091 -6.8159,6.42091 l -688.84327,0 c -3.77605,0 -6.81597,-2.86373 -6.81597,-6.42091 l 0,-359.39728 c 0,-3.55718 3.03992,-6.42091 6.81597,-6.42091 z" style="opacity:1;fill:url(#linearGradient5102);fill-opacity:1;fill-rule:nonzero;stroke:none;stroke-width:35;stroke-linecap:butt;stroke-linejoin:miter;stroke-miterlimit:4;stroke-dasharray:none;stroke-dashoffset:0;stroke-opacity:1"/>
          <g transform="matrix(0.20792644,0,0,0.20792644,448.73294,-291.13998)" id="g4503">
            <path style="opacity:1;fill:#1a1a1a;fill-opacity:1;stroke:none;stroke-width:35;stroke-linecap:butt;stroke-linejoin:miter;stroke-miterlimit:4;stroke-dasharray:none;stroke-dashoffset:0;stroke-opacity:1" d="m 2633.4672,788.1111 a 34.889215,34.889215 0 0 1 -34.8893,34.88922 34.889215,34.889215 0 0 1 -34.8891,-34.88922 34.889215,34.889215 0 0 1 34.8891,-34.88922 34.889215,34.889215 0 0 1 34.8893,34.88922 z" id="path4505"/>
            <g id="g4507" transform="matrix(-3.325396,0,0,-3.325396,3618.1763,1123.5902)">
              <path style="opacity:1;fill:#808080;fill-opacity:1;stroke:none;stroke-width:35;stroke-linecap:butt;stroke-linejoin:miter;stroke-miterlimit:4;stroke-dasharray:none;stroke-dashoffset:0;stroke-opacity:1" d="m 315.73933,100.88396 a 9.1297445,9.1297445 0 0 1 -9.12974,9.12974 9.1297445,9.1297445 0 0 1 -9.12975,-9.12974 9.1297445,9.1297445 0 0 1 9.12975,-9.129748 9.1297445,9.1297445 0 0 1 9.12974,9.129748 z" id="path4509"/>
              <path id="path4511" d="m 314.65281,100.88395 a 8.0432296,8.0432296 0 0 1 -8.04323,8.04323 8.0432296,8.0432296 0 0 1 -8.04323,-8.04323 8.0432296,8.0432296 0 0 1 8.04323,-8.043223 8.0432296,8.0432296 0 0 1 8.04323,8.043223 z" style="opacity:1;fill:#1a1a1a;fill-opacity:1;stroke:none;stroke-width:35;stroke-linecap:butt;stroke-linejoin:miter;stroke-miterlimit:4;stroke-dasharray:none;stroke-dashoffset:0;stroke-opacity:1"/>
              <path style="opacity:1;fill:#000000;fill-opacity:1;stroke:none;stroke-width:35;stroke-linecap:butt;stroke-linejoin:miter;stroke-miterlimit:4;stroke-dasharray:none;stroke-dashoffset:0;stroke-opacity:1" d="m 313.63515,100.88396 a 7.0255574,7.0255574 0 0 1 -7.02558,7.02555 7.0255574,7.0255574 0 0 1 -7.02555,-7.02555 7.0255574,7.0255574 0 0 1 7.02555,-7.025557 7.0255574,7.0255574 0 0 1 7.02558,7.025557 z" id="path4513"/>
              <path style="opacity:1;fill:#999999;fill-opacity:1;stroke:none;stroke-width:35;stroke-linecap:butt;stroke-linejoin:miter;stroke-miterlimit:4;stroke-dasharray:none;stroke-dashoffset:0;stroke-opacity:1" d="m 308.1,94.022792 a 6.7511235,6.7511235 0 0 1 4.05468,6.187498 6.7511235,6.7511235 0 0 1 -6.75,6.75195 6.7511235,6.7511235 0 0 1 -3.87304,-1.22461 7.0255574,7.0255574 0 0 0 5.07812,2.17188 7.0255574,7.0255574 0 0 0 7.02539,-7.02539 A 7.0255574,7.0255574 0 0 0 308.1,94.022792 Z" id="path4515"/>
              <path id="path4517" d="m 305.51799,105.4221 a 4.4472338,4.4472338 0 0 1 -2.67099,-4.07594 4.4472338,4.4472338 0 0 1 4.4465,-4.447787 4.4472338,4.4472338 0 0 1 2.55132,0.806699 4.6280144,4.6280144 0 0 0 -3.34515,-1.430704 4.6280144,4.6280144 0 0 0 -4.62791,4.627902 4.6280144,4.6280144 0 0 0 3.64623,4.51983 z" style="opacity:1;fill:#999999;fill-opacity:1;stroke:none;stroke-width:35;stroke-linecap:butt;stroke-linejoin:miter;stroke-miterlimit:4;stroke-dasharray:none;stroke-dashoffset:0;stroke-opacity:1"/>
            </g>
          </g>
          <path id="path4519" d="m 1129.4716,-137.38543 -27.134,17.3583 231.0739,0 c 6.4196,0 11.7465,4.71956 11.7465,10.4073 l 0,360.10904 c 0,5.68775 -5.3272,10.47359 -11.7465,10.4073 l -217.6763,0 -8.6681,17.76043 248.3487,0 c 3.3386,0 6.0044,-2.35111 6.0044,-5.59177 l 0,-404.85883 c 0,-3.24066 -2.6658,-5.59177 -6.0044,-5.59177 z" style="opacity:1;fill:url(#linearGradient4527);fill-opacity:1;stroke:none;stroke-width:35;stroke-linecap:butt;stroke-linejoin:miter;stroke-miterlimit:4;stroke-dasharray:none;stroke-dashoffset:0;stroke-opacity:1"/>
        </g>
      </g>
      <g id="g4478" transform="matrix(0.23290689,0,0,0.23290689,-336.38199,524.25167)">
        <g transform="translate(72.866527)" id="g4444">
          <path style="opacity:1;fill:#000000;fill-opacity:1;stroke:none;stroke-width:35;stroke-linecap:butt;stroke-linejoin:miter;stroke-miterlimit:4;stroke-dasharray:none;stroke-dashoffset:0;stroke-opacity:1" d="m 369.36573,-647.61512 1981.40417,0 c 16.62,0 30,13.74978 30,30.8291 l 0,1235.65387 c 0,17.07932 -13.38,30.8291 -30,30.8291 l -1981.40417,0 c -16.62,0 -30,-13.74978 -30,-30.8291 l 0,-1235.65387 c 0,-17.07932 13.38,-30.8291 30,-30.8291 z" id="rect4418"/>
          <path style="opacity:1;fill:url(#linearGradient4697);fill-opacity:1;stroke:none;stroke-width:35;stroke-linecap:butt;stroke-linejoin:miter;stroke-miterlimit:4;stroke-dasharray:none;stroke-dashoffset:0;stroke-opacity:1" d="m 450.50105,-487.75628 1819.13355,0 c 9.972,0 18,8.028 18,18 l 0,1007.51257 c 0,9.972 -8.028,18 -18,18 l -1819.13355,0 c -9.972,0 -18,-8.028 -18,-18 l 0,-1007.51257 c 0,-9.972 8.028,-18 18,-18 z" id="rect4391"/>
          <g id="g4408" transform="translate(-1238.5102,-1350.837)">
            <path id="path4349" d="m 2633.4672,788.1111 a 34.889215,34.889215 0 0 1 -34.8893,34.88922 34.889215,34.889215 0 0 1 -34.8891,-34.88922 34.889215,34.889215 0 0 1 34.8891,-34.88922 34.889215,34.889215 0 0 1 34.8893,34.88922 z" style="opacity:1;fill:#1a1a1a;fill-opacity:1;stroke:none;stroke-width:35;stroke-linecap:butt;stroke-linejoin:miter;stroke-miterlimit:4;stroke-dasharray:none;stroke-dashoffset:0;stroke-opacity:1"/>
            <g transform="matrix(-3.325396,0,0,-3.325396,3618.1763,1123.5902)" id="g4361">
              <path id="path4363" d="m 315.73933,100.88396 a 9.1297445,9.1297445 0 0 1 -9.12974,9.12974 9.1297445,9.1297445 0 0 1 -9.12975,-9.12974 9.1297445,9.1297445 0 0 1 9.12975,-9.129748 9.1297445,9.1297445 0 0 1 9.12974,9.129748 z" style="opacity:1;fill:#808080;fill-opacity:1;stroke:none;stroke-width:35;stroke-linecap:butt;stroke-linejoin:miter;stroke-miterlimit:4;stroke-dasharray:none;stroke-dashoffset:0;stroke-opacity:1"/>
              <path style="opacity:1;fill:#1a1a1a;fill-opacity:1;stroke:none;stroke-width:35;stroke-linecap:butt;stroke-linejoin:miter;stroke-miterlimit:4;stroke-dasharray:none;stroke-dashoffset:0;stroke-opacity:1" d="m 314.65281,100.88395 a 8.0432296,8.0432296 0 0 1 -8.04323,8.04323 8.0432296,8.0432296 0 0 1 -8.04323,-8.04323 8.0432296,8.0432296 0 0 1 8.04323,-8.043223 8.0432296,8.0432296 0 0 1 8.04323,8.043223 z" id="path4365"/>
              <path id="path4367" d="m 313.63515,100.88396 a 7.0255574,7.0255574 0 0 1 -7.02558,7.02555 7.0255574,7.0255574 0 0 1 -7.02555,-7.02555 7.0255574,7.0255574 0 0 1 7.02555,-7.025557 7.0255574,7.0255574 0 0 1 7.02558,7.025557 z" style="opacity:1;fill:#000000;fill-opacity:1;stroke:none;stroke-width:35;stroke-linecap:butt;stroke-linejoin:miter;stroke-miterlimit:4;stroke-dasharray:none;stroke-dashoffset:0;stroke-opacity:1"/>
              <path id="path4369" d="m 308.1,94.022792 a 6.7511235,6.7511235 0 0 1 4.05468,6.187498 6.7511235,6.7511235 0 0 1 -6.75,6.75195 6.7511235,6.7511235 0 0 1 -3.87304,-1.22461 7.0255574,7.0255574 0 0 0 5.07812,2.17188 7.0255574,7.0255574 0 0 0 7.02539,-7.02539 A 7.0255574,7.0255574 0 0 0 308.1,94.022792 Z" style="opacity:1;fill:#999999;fill-opacity:1;stroke:none;stroke-width:35;stroke-linecap:butt;stroke-linejoin:miter;stroke-miterlimit:4;stroke-dasharray:none;stroke-dashoffset:0;stroke-opacity:1"/>
              <path style="opacity:1;fill:#999999;fill-opacity:1;stroke:none;stroke-width:35;stroke-linecap:butt;stroke-linejoin:miter;stroke-miterlimit:4;stroke-dasharray:none;stroke-dashoffset:0;stroke-opacity:1" d="m 305.51799,105.4221 a 4.4472338,4.4472338 0 0 1 -2.67099,-4.07594 4.4472338,4.4472338 0 0 1 4.4465,-4.447787 4.4472338,4.4472338 0 0 1 2.55132,0.806699 4.6280144,4.6280144 0 0 0 -3.34515,-1.430704 4.6280144,4.6280144 0 0 0 -4.62791,4.627902 4.6280144,4.6280144 0 0 0 3.64623,4.51983 z" id="path4416"/>
            </g>
          </g>
          <path style="opacity:1;fill:url(#linearGradient4442);fill-opacity:1;stroke:none;stroke-width:35;stroke-linecap:butt;stroke-linejoin:miter;stroke-miterlimit:4;stroke-dasharray:none;stroke-dashoffset:0;stroke-opacity:1" d="m 1739.793,-633.85156 -73.3731,132.33203 603.2149,0 c 17.3593,0 31.7636,14.40435 31.7636,31.76367 l 0,1007.51172 c 0,17.35932 -14.4043,31.76367 -31.7636,31.76367 l -502.0879,0 -23.4395,66.41406 606.6621,0 c 9.028,0 16.2364,-7.17573 16.2364,-17.0664 l 0,-1235.65235 c 0,-9.89067 -7.2084,-17.0664 -16.2364,-17.0664 l -610.9765,0 z" id="path4428"/>
        </g>
        <g transform="matrix(1.0638337,0,0,1,-48.796942,-62.896526)" id="g4474">
          <path style="opacity:1;fill:#333333;fill-opacity:1;stroke:none;stroke-width:35;stroke-linecap:butt;stroke-linejoin:miter;stroke-miterlimit:4;stroke-dasharray:none;stroke-dashoffset:0;stroke-opacity:1" d="m 363.36523,709.69727 c -5.54,0 -14.5078,6.39176 -18.76367,14.69335 -7.43719,14.50713 -5.56429,28.44856 3.47071,65.91211 4.32735,17.94334 6.74166,45.69336 25.29296,45.69336 l 912.19927,0 214.5156,0 912.1992,0 c 18.5513,0 20.9657,-27.75002 25.293,-45.69336 9.035,-37.46355 10.9079,-51.40498 3.4707,-65.91211 -4.2559,-8.30159 -13.2237,-14.69335 -18.7637,-14.69335 l -922.1992,0 -214.5156,0 -922.19927,0 z" id="rect4457"/>
          <path style="opacity:1;fill:#000000;fill-opacity:1;stroke:none;stroke-width:35;stroke-linecap:butt;stroke-linejoin:miter;stroke-miterlimit:4;stroke-dasharray:none;stroke-dashoffset:0;stroke-opacity:1" d="m 340.04297,746.48438 c 1.58892,14.06465 6.53661,36.68173 10.7793,56.53906 3.40335,15.99315 8.02155,32.97265 22.54296,32.97265 l 912.19927,0 214.5156,0 912.1992,0 c 14.5214,0 19.1397,-16.9795 22.543,-32.97265 4.2427,-19.85733 9.1904,-42.47441 10.7793,-56.53906 -6.6016,21.95517 -16.489,53.67611 -33.2305,56.53906 l -912.291,0 -214.5156,0 -912.29106,0 c -16.74145,-2.86295 -26.62882,-34.58389 -33.23047,-56.53906 z" id="path4463"/>
        </g>
      </g>
      <g transform="matrix(0.31040983,0,0,0.31040983,594.28281,670.16255)" id="g4351"/>
      <g id="g4863" transform="matrix(0.31040983,0,0,0.31040983,594.28281,670.16255)"/>
    </g>
  </g>
</svg>